<?xml version="1.0" encoding="utf-8"?>
<!-- Generator: Adobe Illustrator 18.1.1, SVG Export Plug-In . SVG Version: 6.00 Build 0)  -->
<!DOCTYPE svg PUBLIC "-//W3C//DTD SVG 1.1//EN" "http://www.w3.org/Graphics/SVG/1.1/DTD/svg11.dtd">
<svg version="1.1" id="Layer_1" xmlns="http://www.w3.org/2000/svg" xmlns:xlink="http://www.w3.org/1999/xlink" x="0px" y="0px"
	 viewBox="0 0 24 24" enable-background="new 0 0 24 24" xml:space="preserve">
<g>
	<rect x="18" y="10.9" fill="#333333" width="2" height="2"/>
	<rect x="4" y="10.9" fill="#333333" width="2" height="2"/>
	<path fill="#333333" d="M0,5.9v12h24v-12H0z M12.1,15.9c-1.5,0-2.8-1.8-2.8-3.9S10.5,8,12.1,8s2.8,1.8,2.8,3.9S13.6,15.9,12.1,15.9
		z M2,7.9h6.6c-0.8,1.1-1.3,2.5-1.3,4.1c0,1.5,0.5,2.9,1.2,3.9H2V7.9z M22,15.9h-6.3c0.8-1,1.2-2.4,1.2-3.9c0-1.6-0.5-3-1.3-4.1H22
		V15.9z"/>
</g>
</svg>
