<?xml version="1.0" encoding="utf-8"?>
<!-- Generator: Adobe Illustrator 18.1.1, SVG Export Plug-In . SVG Version: 6.00 Build 0)  -->
<!DOCTYPE svg PUBLIC "-//W3C//DTD SVG 1.1//EN" "http://www.w3.org/Graphics/SVG/1.1/DTD/svg11.dtd">
<svg version="1.1" id="Layer_1" xmlns="http://www.w3.org/2000/svg" xmlns:xlink="http://www.w3.org/1999/xlink" x="0px" y="0px"
	 viewBox="0 0 24 24" enable-background="new 0 0 24 24" xml:space="preserve">
<g>
	<path fill="#333333" d="M19,3h-2H8V2H6v1H5V2H3v1H0v17h24V3H19z M22,5v2h-3V5H22z M17,5v2h-1.8c-0.9-0.6-2-1-3.2-1S9.7,6.4,8.8,7H2
		V5H17z M12,8c1.9,0,3.5,1.6,3.5,3.5S13.9,15,12,15s-3.5-1.6-3.5-3.5S10.1,8,12,8z M2,18V9h5.1c-0.4,0.8-0.6,1.6-0.6,2.5
		c0,3,2.5,5.5,5.5,5.5s5.5-2.5,5.5-5.5c0-0.9-0.2-1.7-0.6-2.5H17h2h3v9H2z"/>
	<path fill="#333333" d="M10.5,12.5c0.6,0,1-0.4,1-1c0-0.3,0.2-0.5,0.5-0.5c0.6,0,1-0.4,1-1s-0.4-1-1-1c-1.4,0-2.5,1.1-2.5,2.5
		C9.5,12.1,9.9,12.5,10.5,12.5z"/>
</g>
</svg>
