<?xml version="1.0" encoding="utf-8"?>
<!-- Generator: Adobe Illustrator 18.1.1, SVG Export Plug-In . SVG Version: 6.00 Build 0)  -->
<!DOCTYPE svg PUBLIC "-//W3C//DTD SVG 1.1//EN" "http://www.w3.org/Graphics/SVG/1.1/DTD/svg11.dtd">
<svg version="1.1" id="Layer_1" xmlns="http://www.w3.org/2000/svg" xmlns:xlink="http://www.w3.org/1999/xlink" x="0px" y="0px"
	 viewBox="0 0 24 24" enable-background="new 0 0 24 24" xml:space="preserve">
<path fill="#333333" d="M13.1,1.3l2,6.1c0.2,0.5,0.6,0.8,1.1,0.8h6.4c1.1,0,1.6,1.5,0.7,2.1l-5.2,3.9c-0.4,0.3-0.6,0.8-0.4,1.3
	l2,6.2c0.4,1.1-0.9,2-1.8,1.3l-5.2-3.7c-0.4-0.3-1-0.3-1.4,0L6.1,23c-0.9,0.7-2.2-0.2-1.8-1.3l2-6.2c0.2-0.5,0-1-0.4-1.3l-5.2-3.9
	c-0.9-0.7-0.4-2.1,0.7-2.1h6.4c0.5,0,1-0.3,1.1-0.8l2-6.1C11.2,0.2,12.8,0.2,13.1,1.3z"/>
</svg>
