<?xml version="1.0" encoding="utf-8"?>
<!-- Generator: Adobe Illustrator 18.1.1, SVG Export Plug-In . SVG Version: 6.00 Build 0)  -->
<!DOCTYPE svg PUBLIC "-//W3C//DTD SVG 1.1//EN" "http://www.w3.org/Graphics/SVG/1.1/DTD/svg11.dtd">
<svg version="1.1" id="Layer_1" xmlns="http://www.w3.org/2000/svg" xmlns:xlink="http://www.w3.org/1999/xlink" x="0px" y="0px"
	 viewBox="0 0 24 24" enable-background="new 0 0 24 24" xml:space="preserve">
<path fill="#333333" d="M23,18.7c-2,0-3-1-3-2v-6.2c0-4.3-4-7.8-8-7.8s-8,3.5-8,7.8v6.2c0,1-1,2-3,2v2h7.1c0.4,1.7,2,3,3.9,3
	c1.8,0,3.4-1.4,3.8-3H23V18.7z M12,21.7c-0.7,0-1.4-0.4-1.7-1H12h1.7C13.3,21.2,12.7,21.7,12,21.7z M12,18.7H5.2
	c0.5-0.7,0.8-2,0.8-2v-6.2c0-3.2,3-5.8,6-5.8s6,2.6,6,5.8v6.2c0,0,0.3,1.3,0.8,2H12z"/>
<line fill="none" stroke="#333333" stroke-width="2" stroke-miterlimit="10" x1="6" y1="15.7" x2="18" y2="15.7"/>
<line fill="none" stroke="#333333" stroke-width="2" stroke-miterlimit="10" x1="12" y1="3.7" x2="12" y2="-0.3"/>
</svg>
