<?xml version="1.0" encoding="utf-8"?>
<!-- Generator: Adobe Illustrator 18.1.1, SVG Export Plug-In . SVG Version: 6.00 Build 0)  -->
<!DOCTYPE svg PUBLIC "-//W3C//DTD SVG 1.1//EN" "http://www.w3.org/Graphics/SVG/1.1/DTD/svg11.dtd">
<svg version="1.1" id="Layer_1" xmlns="http://www.w3.org/2000/svg" xmlns:xlink="http://www.w3.org/1999/xlink" x="0px" y="0px"
	 viewBox="0 0 24 24" enable-background="new 0 0 24 24" xml:space="preserve">
<g>
	<path fill="#333333" d="M19.1,17.1c4.5-4.5,4.5-11.8,0-16.2l-1.4,1.4c3.7,3.7,3.7,9.7,0,13.4c-3.7,3.7-9.7,3.7-13.4,0l-1.4,1.4
		c2,2,4.6,3.1,7.2,3.3V22H8v2h6v-2h-2v-1.6C14.6,20.1,17.1,19,19.1,17.1z"/>
	<path fill="#333333" d="M10.9,16.9c2.1,0,4.1-0.8,5.7-2.3c3.1-3.1,3.1-8.2,0-11.3c-1.5-1.5-3.5-2.3-5.7-2.3c-2.1,0-4.1,0.8-5.7,2.3
		C3.8,4.8,2.9,6.8,2.9,8.9c0,2.1,0.8,4.1,2.3,5.7C6.8,16.1,8.8,16.9,10.9,16.9z M6.7,4.7c1.1-1.1,2.6-1.8,4.2-1.8
		c1.6,0,3.1,0.6,4.2,1.8c2.3,2.3,2.3,6.1,0,8.5c-1.1,1.1-2.6,1.8-4.2,1.8c-1.6,0-3.1-0.6-4.2-1.8C5.6,12,4.9,10.5,4.9,8.9
		C4.9,7.3,5.6,5.8,6.7,4.7z"/>
</g>
</svg>
