<?xml version="1.0" encoding="utf-8"?>
<!-- Generator: Adobe Illustrator 18.1.1, SVG Export Plug-In . SVG Version: 6.00 Build 0)  -->
<!DOCTYPE svg PUBLIC "-//W3C//DTD SVG 1.1//EN" "http://www.w3.org/Graphics/SVG/1.1/DTD/svg11.dtd">
<svg version="1.1" id="Layer_1" xmlns="http://www.w3.org/2000/svg" xmlns:xlink="http://www.w3.org/1999/xlink" x="0px" y="0px"
	 viewBox="0 0 24 24" enable-background="new 0 0 24 24" xml:space="preserve">
<g>
	<path fill="#333333" d="M19,6h-6v6h6V6z M17,10h-2V8h2V10z"/>
	<path fill="#333333" d="M11,6H5v6h6V6z M9,10H7V8h2V10z"/>
	<path fill="#333333" d="M11,14H5v6h6V14z M9,18H7v-2h2V18z"/>
	<path fill="#333333" d="M11,2V0H9v2H7V0H5v2H1v22h22V2H11z M17,22h-2v-6h2V22z M21,22h-2v-8h-6v8H3V4h18V22z"/>
</g>
</svg>
