<?xml version="1.0" encoding="utf-8"?>
<!-- Generator: Adobe Illustrator 18.1.1, SVG Export Plug-In . SVG Version: 6.00 Build 0)  -->
<!DOCTYPE svg PUBLIC "-//W3C//DTD SVG 1.1//EN" "http://www.w3.org/Graphics/SVG/1.1/DTD/svg11.dtd">
<svg version="1.1" id="Layer_1" xmlns="http://www.w3.org/2000/svg" xmlns:xlink="http://www.w3.org/1999/xlink" x="0px" y="0px"
	 viewBox="0 0 24 24" enable-background="new 0 0 24 24" xml:space="preserve">
<g>
	<path fill="#333333" d="M23,20.2c0,1.5-1.2,2.7-2.7,2.7H4.3c-1.5,0-2.7-1.2-2.7-2.7V4.3c0-1.5,1.2-2.7,2.7-2.7h15.9
		c1.5,0,2.7,1.2,2.7,2.7V20.2z M20.6,10.6h-1.9c0.2,0.6,0.3,1.2,0.3,1.8c0,3.6-3,6.4-6.7,6.4c-3.7,0-6.6-2.9-6.6-6.4
		c0-0.6,0.1-1.3,0.3-1.8H4v9c0,0.5,0.4,0.8,0.9,0.8h14.9c0.5,0,0.8-0.4,0.8-0.8V10.6z M12.3,8C9.9,8,8,9.9,8,12.2
		c0,2.3,1.9,4.2,4.3,4.2c2.4,0,4.3-1.9,4.3-4.2C16.6,9.9,14.7,8,12.3,8z M20.6,4.9c0-0.5-0.4-1-1-1h-2.4c-0.5,0-1,0.4-1,1v2.3
		c0,0.5,0.4,1,1,1h2.4c0.5,0,1-0.4,1-1V4.9z"/>
</g>
</svg>
