<?xml version="1.0" encoding="utf-8"?>
<!-- Generator: Adobe Illustrator 18.1.1, SVG Export Plug-In . SVG Version: 6.00 Build 0)  -->
<!DOCTYPE svg PUBLIC "-//W3C//DTD SVG 1.1//EN" "http://www.w3.org/Graphics/SVG/1.1/DTD/svg11.dtd">
<svg version="1.1" id="Layer_1" xmlns="http://www.w3.org/2000/svg" xmlns:xlink="http://www.w3.org/1999/xlink" x="0px" y="0px"
	 viewBox="0 0 24 24" enable-background="new 0 0 24 24" xml:space="preserve">
<g>
	<rect x="8" y="6" fill="#333333" width="2" height="2"/>
	<rect x="14" y="6" fill="#333333" width="2" height="2"/>
	<path fill="#333333" d="M24,8h-2V1H2v7H0v14h2v2h2v-2h2h12h2v2h2v-2h2V8z M4,3h16v5h-2v3H6V8H4V3z M18,15H6v-2h12V15z M4,20H2V10h2
		v1v4v2V20z M18,20H6v-3h12V20z M22,20h-2v-3v-2v-4v-1h2V20z"/>
</g>
</svg>
