<?xml version="1.0" encoding="utf-8"?>
<!-- Generator: Adobe Illustrator 18.1.1, SVG Export Plug-In . SVG Version: 6.00 Build 0)  -->
<!DOCTYPE svg PUBLIC "-//W3C//DTD SVG 1.1//EN" "http://www.w3.org/Graphics/SVG/1.1/DTD/svg11.dtd">
<svg version="1.1" id="Layer_1" xmlns="http://www.w3.org/2000/svg" xmlns:xlink="http://www.w3.org/1999/xlink" x="0px" y="0px"
	 viewBox="0 0 24 24" enable-background="new 0 0 24 24" xml:space="preserve">
<path fill="#333333" d="M21.5,18.4C21.5,18.3,21.5,18.3,21.5,18.4L13.4,4.6l1.5-3.2c0.2-0.5,0-1.1-0.5-1.3c-0.5-0.2-1.1,0-1.3,0.5
	l-1,2l-0.9-1.9C11,0.2,10.4-0.1,10,0.2C9.5,0.4,9.3,1,9.5,1.5L11,4.8L3.1,18.3c0,0,0,0,0,0.1c-0.3,0.5-0.3,1.1-0.1,1.6
	c0.8,2.3,4.6,4,9.3,4c4.7,0,8.6-1.6,9.3-4C21.8,19.5,21.8,18.9,21.5,18.4z M10.6,21.9l1.7-2.9l1.7,2.9C13.5,22,12.9,22,12.3,22
	C11.7,22,11.1,22,10.6,21.9z M16.1,21.6l-2.9-5c-0.2-0.3-0.5-0.5-0.8-0.5h0c-0.3,0-0.7,0.2-0.9,0.5l-2.9,5c-2.1-0.5-3.4-1.4-3.7-2.2
	c0,0,0-0.1,0-0.2l7.4-12.7l7.4,12.7c0,0.1,0,0.1,0,0.2C19.5,20.2,18.1,21.1,16.1,21.6z"/>
</svg>
