<?xml version="1.0" encoding="utf-8"?>
<!-- Generator: Adobe Illustrator 18.1.1, SVG Export Plug-In . SVG Version: 6.00 Build 0)  -->
<!DOCTYPE svg PUBLIC "-//W3C//DTD SVG 1.1//EN" "http://www.w3.org/Graphics/SVG/1.1/DTD/svg11.dtd">
<svg version="1.1" id="Layer_1" xmlns="http://www.w3.org/2000/svg" xmlns:xlink="http://www.w3.org/1999/xlink" x="0px" y="0px"
	 viewBox="0 0 24 24" enable-background="new 0 0 24 24" xml:space="preserve">
<g>
	<path fill="#333333" d="M20,7.3V0H4v7.3l-4,3.3V24h24V10.5L20,7.3z M2,13.8l5.8,3.7L2,21.2V13.8z M12,17.2l7.6,4.8H4.4L12,17.2z
		 M16.2,17.5l5.8-3.7v7.4L16.2,17.5z M22,11.5l-2,1.3V9.8L22,11.5z M18,2v12l-3.5,2.3c0,0-0.1,0.1-0.1,0.1L12,14.8l-2.4,1.5
		c0,0,0-0.1-0.1-0.1L6,14V2H18z M4,12.7l-2-1.3l2-1.6V12.7z"/>
	<rect x="8" y="5" fill="#333333" width="8" height="2"/>
	<rect x="8" y="9" fill="#333333" width="8" height="2"/>
</g>
</svg>
