<?xml version="1.0" encoding="utf-8"?>
<!-- Generator: Adobe Illustrator 18.1.1, SVG Export Plug-In . SVG Version: 6.00 Build 0)  -->
<!DOCTYPE svg PUBLIC "-//W3C//DTD SVG 1.1//EN" "http://www.w3.org/Graphics/SVG/1.1/DTD/svg11.dtd">
<svg version="1.1" id="Layer_1" xmlns="http://www.w3.org/2000/svg" xmlns:xlink="http://www.w3.org/1999/xlink" x="0px" y="0px"
	 viewBox="0 0 24 24" enable-background="new 0 0 24 24" xml:space="preserve">
<g>
	<path fill="#333333" d="M0,3v4v2v13h11h2h11V9V7V3H0z M6,5h2v2H6V5z M2,5h2v2H2V5z M11,20H2V9h9V20z M22,20h-9V9h9V20z M13,7h-2h-1
		V5h12v2H13z"/>
	<path fill="#333333" d="M17.5,18c1.9,0,3.5-1.6,3.5-3.5S19.4,11,17.5,11S14,12.6,14,14.5S15.6,18,17.5,18z M17.5,13
		c0.8,0,1.5,0.7,1.5,1.5S18.3,16,17.5,16S16,15.3,16,14.5S16.7,13,17.5,13z"/>
</g>
</svg>
