<?xml version="1.0" encoding="utf-8"?>
<!-- Generator: Adobe Illustrator 18.1.1, SVG Export Plug-In . SVG Version: 6.00 Build 0)  -->
<!DOCTYPE svg PUBLIC "-//W3C//DTD SVG 1.1//EN" "http://www.w3.org/Graphics/SVG/1.1/DTD/svg11.dtd">
<svg version="1.1" id="Layer_1" xmlns="http://www.w3.org/2000/svg" xmlns:xlink="http://www.w3.org/1999/xlink" x="0px" y="0px"
	 viewBox="0 0 24 24" enable-background="new 0 0 24 24" xml:space="preserve">
<g>
	<path fill="#333333" d="M9.5,17.4v-1.7c0-4.5,6-5.1,6-8.9c0-1.7-1.3-3.2-3.7-3.2c-3,0-4.3,1.8-5.1,2.5c-0.3,0.3-0.7,0.3-1,0
		L4.3,4.7C4,4.4,4.1,4,4.3,3.7C4.3,3.7,7,0,12.2,0c4.3,0,7.7,2.7,7.7,6.7c0,5.2-6.4,6.2-6.4,9.1v1.5c0,0.5-0.4,0.8-0.9,0.8h-2.2
		C9.9,18.2,9.5,17.9,9.5,17.4z M11.4,19.9c1.2,0,2.1,0.9,2.1,2.1c0,1.2-0.9,2.1-2.1,2.1c-1.1,0-2.1-0.9-2.1-2.1
		C9.3,20.8,10.3,19.9,11.4,19.9z"/>
</g>
</svg>
