<?xml version="1.0" encoding="utf-8"?>
<!-- Generator: Adobe Illustrator 18.1.1, SVG Export Plug-In . SVG Version: 6.00 Build 0)  -->
<!DOCTYPE svg PUBLIC "-//W3C//DTD SVG 1.1//EN" "http://www.w3.org/Graphics/SVG/1.1/DTD/svg11.dtd">
<svg version="1.1" id="Layer_1" xmlns="http://www.w3.org/2000/svg" xmlns:xlink="http://www.w3.org/1999/xlink" x="0px" y="0px"
	 viewBox="0 0 24 24" enable-background="new 0 0 24 24" xml:space="preserve">
<g>
	<circle fill="#333333" cx="14" cy="10" r="1"/>
	<circle fill="#333333" cx="16" cy="7" r="1"/>
	<path fill="#333333" d="M23,14h-1H4V7.2c0-1.4,1.1-2.5,2.5-2.5S9,5.8,9,7.1c0,0.6,0.4,1,1,1s1-0.4,1-1c0-2.5-2-4.5-4.5-4.5
		S2,4.7,2,7.2V14H1c-0.6,0-1,0.4-1,1s0.4,1,1,1h1v1v1c0,1.9,1.3,3.4,3,3.9V24h2v-2h10v2h2v-2.1c1.7-0.4,3-2,3-3.9v-2h1
		c0.6,0,1-0.4,1-1S23.6,14,23,14z M20,18c0,1.1-0.9,2-2,2h-1H7H6c-1.1,0-2-0.9-2-2v-1v-1h16V18z"/>
</g>
</svg>
