<?xml version="1.0" encoding="utf-8"?>
<!-- Generator: Adobe Illustrator 18.1.1, SVG Export Plug-In . SVG Version: 6.00 Build 0)  -->
<!DOCTYPE svg PUBLIC "-//W3C//DTD SVG 1.1//EN" "http://www.w3.org/Graphics/SVG/1.1/DTD/svg11.dtd">
<svg version="1.1" id="Layer_1" xmlns="http://www.w3.org/2000/svg" xmlns:xlink="http://www.w3.org/1999/xlink" x="0px" y="0px"
	 viewBox="0 0 24 24" enable-background="new 0 0 24 24" xml:space="preserve">
<path fill="#333333" d="M12,0C5.5,0,0.2,5.3,0.2,11.8S5.5,23.5,12,23.5s11.8-5.3,11.8-11.8S18.5,0,12,0z M12,19.7
	c-0.8,0-1.4-0.6-1.4-1.4c0-0.8,0.6-1.4,1.4-1.4c0.8,0,1.4,0.6,1.4,1.4C13.4,19,12.8,19.7,12,19.7z M13.1,14.4v0.3
	c0,0.3-0.2,0.5-0.5,0.5l-1.1,0c-0.3,0-0.5-0.2-0.5-0.5v-0.4c0-2.6,3.3-2.9,3.3-5.1c0-1-0.8-1.8-2.2-1.8c-1.7,0-2.5,1-3,1.4
	C8.8,9,8.6,9,8.4,8.8L7.6,8c-0.2-0.2-0.1-0.4,0-0.6c0,0,1.5-2.1,4.5-2.1c2.5,0,4.5,1.6,4.5,3.8C16.6,12.2,13.1,12.7,13.1,14.4z"/>
</svg>
