<?xml version="1.0" encoding="utf-8"?>
<!-- Generator: Adobe Illustrator 18.1.1, SVG Export Plug-In . SVG Version: 6.00 Build 0)  -->
<!DOCTYPE svg PUBLIC "-//W3C//DTD SVG 1.1//EN" "http://www.w3.org/Graphics/SVG/1.1/DTD/svg11.dtd">
<svg version="1.1" id="Layer_1" xmlns="http://www.w3.org/2000/svg" xmlns:xlink="http://www.w3.org/1999/xlink" x="0px" y="0px"
	 viewBox="0 0 24 24" enable-background="new 0 0 24 24" xml:space="preserve">
<g>
	<path fill="#333333" d="M20,24l-5.4-5.5c-0.9,0.2-1.9,0.3-2.8,0.3C5.2,18.7,0,14.7,0,9.7s5.3-9,11.7-9c6.4,0,11.7,4.1,11.7,9
		c0,2.3-1.2,4.6-3.4,6.3V24z M15.2,16.2l2.8,2.9V15l0.4-0.3c1.9-1.4,3-3.2,3-5c0-3.9-4.3-7-9.7-7C6.3,2.6,2,5.8,2,9.7s4.4,7,9.7,7
		c1,0,1.9-0.1,2.9-0.3L15.2,16.2z"/>
</g>
</svg>
