<?xml version="1.0" encoding="utf-8"?>
<!-- Generator: Adobe Illustrator 18.1.1, SVG Export Plug-In . SVG Version: 6.00 Build 0)  -->
<!DOCTYPE svg PUBLIC "-//W3C//DTD SVG 1.1//EN" "http://www.w3.org/Graphics/SVG/1.1/DTD/svg11.dtd">
<svg version="1.1" id="Layer_1" xmlns="http://www.w3.org/2000/svg" xmlns:xlink="http://www.w3.org/1999/xlink" x="0px" y="0px"
	 viewBox="0 0 24 24" enable-background="new 0 0 24 24" xml:space="preserve">
<g>
	<path fill="#333333" d="M21.3,7.3c0,0.2,0,0.4,0,0.6c0,6.4-4.8,13.7-13.7,13.7c-2.7,0-5.3-0.8-7.4-2.2c0.4,0,0.8,0.1,1.2,0.1
		c2.3,0,4.3-0.8,6-2.1c-2.1,0-3.9-1.4-4.5-3.3c0.3,0,0.6,0.1,0.9,0.1c0.4,0,0.9-0.1,1.3-0.2c-2.2-0.4-3.9-2.4-3.9-4.7c0,0,0,0,0-0.1
		c0.6,0.4,1.4,0.6,2.2,0.6C2.1,9,1.2,7.6,1.2,5.9c0-0.9,0.2-1.7,0.7-2.4c2.4,2.9,5.9,4.8,9.9,5c-0.1-0.4-0.1-0.7-0.1-1.1
		c0-2.7,2.1-4.8,4.8-4.8c1.4,0,2.6,0.6,3.5,1.5c1.1-0.2,2.1-0.6,3.1-1.2c-0.4,1.1-1.1,2.1-2.1,2.7c1-0.1,1.9-0.4,2.8-0.7
		C23,5.8,22.2,6.7,21.3,7.3z"/>
</g>
</svg>
