<?xml version="1.0" encoding="utf-8"?>
<!-- Generator: Adobe Illustrator 18.1.1, SVG Export Plug-In . SVG Version: 6.00 Build 0)  -->
<!DOCTYPE svg PUBLIC "-//W3C//DTD SVG 1.1//EN" "http://www.w3.org/Graphics/SVG/1.1/DTD/svg11.dtd">
<svg version="1.1" id="Layer_1" xmlns="http://www.w3.org/2000/svg" xmlns:xlink="http://www.w3.org/1999/xlink" x="0px" y="0px"
	 viewBox="0 0 24 24" enable-background="new 0 0 24 24" xml:space="preserve">
<g>
	<path fill="#333333" d="M12,19.4l0.7-0.8c0.7-0.7,6.7-7.3,6.7-11.2C19.4,3.3,16.1,0,12,0C7.9,0,4.6,3.3,4.6,7.4
		c0,3.8,6,10.4,6.7,11.2L12,19.4z M12,2c3,0,5.4,2.4,5.4,5.4c0,2.1-3.1,6.3-5.4,9c-2.3-2.7-5.4-6.9-5.4-9C6.6,4.4,9,2,12,2z"/>
	<path fill="#333333" d="M15.5,7.4c0-1.9-1.6-3.5-3.5-3.5c-1.9,0-3.5,1.6-3.5,3.5s1.6,3.5,3.5,3.5C13.9,10.9,15.5,9.4,15.5,7.4z
		 M10.5,7.4c0-0.8,0.7-1.5,1.5-1.5s1.5,0.7,1.5,1.5S12.8,8.9,12,8.9S10.5,8.3,10.5,7.4z"/>
	<polygon fill="#333333" points="19.5,16 16,16 16,18 18.5,18 21.1,22 2.9,22 5.5,18 8,18 8,16 4.5,16 -0.9,24 24.9,24 	"/>
</g>
</svg>
