<?xml version="1.0" encoding="utf-8"?>
<!-- Generator: Adobe Illustrator 18.1.1, SVG Export Plug-In . SVG Version: 6.00 Build 0)  -->
<!DOCTYPE svg PUBLIC "-//W3C//DTD SVG 1.1//EN" "http://www.w3.org/Graphics/SVG/1.1/DTD/svg11.dtd">
<svg version="1.1" id="Layer_1" xmlns="http://www.w3.org/2000/svg" xmlns:xlink="http://www.w3.org/1999/xlink" x="0px" y="0px"
	 viewBox="0 0 24 24" enable-background="new 0 0 24 24" xml:space="preserve">
<g>
	<path fill="#333333" d="M21.8,21.6c-0.3,1.1-1.1,1.8-2.1,1.9c-2.5,0.3-5,0.3-7.4,0.3s-5,0-7.4-0.3c-1-0.1-1.9-0.9-2.1-1.9
		c-0.3-1.5-0.3-3.1-0.3-4.7c0-1.6,0-3.2,0.3-4.7c0.3-1.1,1.1-1.8,2.2-2C7.3,10,9.7,10,12.2,10s5,0,7.4,0.3c1,0.1,1.9,0.9,2.1,2
		c0.3,1.5,0.3,3.1,0.3,4.7C22.1,18.5,22.1,20.1,21.8,21.6z M8,13.6v-1.3H3.8v1.3h1.4v7.6h1.3v-7.6H8z M10.1-0.1L8.5,5.2v3.6H7.2V5.2
		C7.1,4.6,6.8,3.6,6.4,2.4C6.1,1.5,5.8,0.7,5.5-0.1h1.4l1,3.5l0.9-3.5H10.1z M11.6,21.2v-6.6h-1.2v5.1c-0.3,0.4-0.5,0.6-0.8,0.6
		c-0.2,0-0.3-0.1-0.3-0.3c0,0,0-0.2,0-0.5v-4.9H8.1v5.2c0,0.5,0,0.8,0.1,1c0.1,0.3,0.4,0.5,0.8,0.5c0.4,0,0.9-0.3,1.4-0.8v0.7H11.6z
		 M13.7,6.7c0,0.7-0.1,1.2-0.4,1.6c-0.3,0.5-0.8,0.7-1.4,0.7c-0.6,0-1.1-0.2-1.4-0.7c-0.3-0.3-0.4-0.9-0.4-1.6V4.3
		c0-0.7,0.1-1.2,0.4-1.6c0.3-0.5,0.8-0.7,1.4-0.7c0.6,0,1.1,0.2,1.4,0.7c0.3,0.3,0.4,0.9,0.4,1.6V6.7z M12.5,4.1
		c0-0.6-0.2-0.9-0.6-0.9c-0.4,0-0.6,0.3-0.6,0.9v2.8c0,0.6,0.2,0.9,0.6,0.9c0.4,0,0.6-0.3,0.6-0.9V4.1z M16.1,16.6
		c0-0.6,0-1.1-0.1-1.3c-0.1-0.5-0.5-0.8-1-0.8c-0.4,0-0.9,0.2-1.2,0.7v-2.9h-1.2v8.9h1.2v-0.6c0.4,0.5,0.8,0.7,1.2,0.7
		c0.5,0,0.8-0.3,1-0.7c0.1-0.3,0.1-0.7,0.1-1.3V16.6z M14.9,19.3c0,0.6-0.2,0.9-0.5,0.9c-0.2,0-0.4-0.1-0.6-0.3v-4
		c0.2-0.2,0.4-0.3,0.6-0.3c0.3,0,0.5,0.3,0.5,0.9V19.3z M18.2,8.8H17V8.1c-0.5,0.6-0.9,0.8-1.4,0.8c-0.4,0-0.7-0.2-0.8-0.5
		c-0.1-0.2-0.1-0.5-0.1-1V2.2h1.2v4.9c0,0.3,0,0.4,0,0.5c0,0.2,0.1,0.3,0.3,0.3c0.2,0,0.5-0.2,0.8-0.6V2.2h1.2V8.8z M20.7,18.9h-1.2
		c0,0.5,0,0.8,0,0.8c-0.1,0.3-0.2,0.5-0.5,0.5c-0.4,0-0.6-0.3-0.6-0.9v-1.2h2.4v-1.4c0-0.7-0.1-1.2-0.4-1.6
		c-0.3-0.5-0.8-0.7-1.4-0.7c-0.6,0-1.1,0.2-1.4,0.7c-0.3,0.3-0.4,0.8-0.4,1.6v2.3c0,0.7,0.1,1.2,0.4,1.6c0.3,0.5,0.8,0.7,1.4,0.7
		c0.6,0,1.1-0.2,1.4-0.7c0.1-0.2,0.3-0.5,0.3-0.7c0-0.1,0-0.4,0-0.8V18.9z M19.5,17.1h-1.2v-0.6c0-0.6,0.2-0.9,0.6-0.9
		c0.4,0,0.6,0.3,0.6,0.9V17.1z"/>
</g>
</svg>
