<?xml version="1.0" encoding="utf-8"?>
<!-- Generator: Adobe Illustrator 18.1.1, SVG Export Plug-In . SVG Version: 6.00 Build 0)  -->
<!DOCTYPE svg PUBLIC "-//W3C//DTD SVG 1.1//EN" "http://www.w3.org/Graphics/SVG/1.1/DTD/svg11.dtd">
<svg version="1.1" id="Layer_1" xmlns="http://www.w3.org/2000/svg" xmlns:xlink="http://www.w3.org/1999/xlink" x="0px" y="0px"
	 viewBox="0 0 24 24" enable-background="new 0 0 24 24" xml:space="preserve">
<path fill="#333333" d="M18.3,15.4L15,14.2l0.7-0.5c1.5-0.8,2.3-2.4,2.3-4.4V6.2c0-1.9-0.9-3.6-2.2-4.8c-0.1-0.1-0.2-0.3-0.4-0.3
	c0,0,0,0,0,0c-0.9-0.6-2-1-3.1-1.1L12,0C8.5,0,6,2.8,6,6.8v2.5c0,2,0.8,3.6,2.2,4.4L9,14.2l-3.2,1.1c-2.2,0.8-3.7,2.9-3.7,5V24h20
	v-3.6C22,18.2,20.5,16.2,18.3,15.4z M12,2l0.2,0c0.5,0,1,0.1,1.5,0.4c-0.7,1.1-2.4,3-5.6,3.4C8.3,3.9,9.5,2,12,2z M8,9.3V7.8
	c3.9-0.3,6.1-2.6,7.2-4.1C15.7,4.4,16,5.3,16,6.2v3.1c0,0.9-0.2,2.1-1.4,2.8l-0.8,0.6c-0.5,0.4-0.8,1-0.8,1.6v0.4l-1,2l-1-2v-0.4
	c0-0.6-0.3-1.3-0.8-1.6L9.3,12C8.2,11.4,8,10.2,8,9.3z M20,22H4v-1.6c0-1.3,1-2.6,2.4-3.1l3.1-1.1l1.6,3.3c0.2,0.3,0.5,0.6,0.9,0.6
	s0.7-0.2,0.9-0.6l1.6-3.3l3.1,1.1c1.4,0.5,2.4,1.8,2.4,3.1V22z"/>
</svg>
