<?xml version="1.0" encoding="utf-8"?>
<!-- Generator: Adobe Illustrator 18.1.1, SVG Export Plug-In . SVG Version: 6.00 Build 0)  -->
<!DOCTYPE svg PUBLIC "-//W3C//DTD SVG 1.1//EN" "http://www.w3.org/Graphics/SVG/1.1/DTD/svg11.dtd">
<svg version="1.1" id="Layer_1" xmlns="http://www.w3.org/2000/svg" xmlns:xlink="http://www.w3.org/1999/xlink" x="0px" y="0px"
	 viewBox="0 0 24 24" enable-background="new 0 0 24 24" xml:space="preserve">
<g>
	<path fill="#333333" d="M20,20V0H0v20H20z M9,13.7l-1-0.7C7.7,12.9,7,12.5,7,10.9v-0.5c1.4,0.3,2.7,0,3.9-0.6c0.8-0.5,1.5-1.2,2-2
		C13,8,13,8.2,13,8.4v2.5c0,1.5-0.7,1.9-0.9,2.1c0,0-0.1,0-0.1,0.1L11,13.8c-0.3,0.2-0.5,0.6-0.4,1c0.1,0.4,0.3,0.7,0.7,0.8l3.2,1.1
		c0.7,0.3,1.3,0.8,1.6,1.4H3.9c0.3-0.6,0.9-1.1,1.6-1.4l3.2-1.1c0.4-0.1,0.6-0.4,0.7-0.8C9.4,14.3,9.3,13.9,9,13.7z M7,8.4
		c0.1-1,0.4-1.9,1-2.5c0.5-0.5,1.2-0.8,2.1-0.7c0.6,0,1.1,0.2,1.6,0.6c0,0,0,0.1,0,0.1C11.1,7.8,9.1,8.9,7,8.4
		C7.1,8.4,7.1,8.4,7,8.4z M18,2v15.4c-0.5-1.2-1.5-2.2-2.8-2.6l-1.4-0.5c0.7-0.6,1.2-1.6,1.2-3.3V8.4c0-2.8-2.1-5.2-4.8-5.3
		C8.8,3.1,7.6,3.5,6.7,4.4C5.6,5.5,5,7,5,8.8v2.1c0,1.7,0.6,2.7,1.2,3.3l-1.4,0.5c-1.3,0.5-2.3,1.5-2.8,2.7V2H18z"/>
	<polygon fill="#333333" points="22,3 22,22 3,22 3,24 24,24 24,3 	"/>
</g>
</svg>
