<?xml version="1.0" encoding="utf-8"?>
<!-- Generator: Adobe Illustrator 18.1.1, SVG Export Plug-In . SVG Version: 6.00 Build 0)  -->
<!DOCTYPE svg PUBLIC "-//W3C//DTD SVG 1.1//EN" "http://www.w3.org/Graphics/SVG/1.1/DTD/svg11.dtd">
<svg version="1.1" id="Layer_1" xmlns="http://www.w3.org/2000/svg" xmlns:xlink="http://www.w3.org/1999/xlink" x="0px" y="0px"
	 viewBox="0 0 24 24" enable-background="new 0 0 24 24" xml:space="preserve">
<g>
	<path fill="#333333" d="M22,3.3c-1.2-1.2-2.9-1.9-4.6-1.9S14,2,12.7,3.3L12,4l-0.7-0.7C10,2,8.4,1.3,6.7,1.3S3.3,2,2,3.3
		S0.1,6.1,0.1,7.9s0.7,3.4,1.9,4.6l10,10l10-10c1.2-1.2,1.9-2.9,1.9-4.6S23.2,4.5,22,3.3z M20.6,11.1L12,19.7l-8.6-8.6
		c-0.9-0.9-1.3-2-1.3-3.2s0.5-2.4,1.3-3.2c0.9-0.9,2-1.3,3.2-1.3c1.2,0,2.4,0.5,3.2,1.3L12,6.7l2.1-2.1c0.9-0.9,2-1.3,3.2-1.3
		s2.4,0.5,3.2,1.3c0.9,0.9,1.3,2,1.3,3.2S21.5,10.3,20.6,11.1z"/>
</g>
</svg>
