<?xml version="1.0" encoding="utf-8"?>
<!-- Generator: Adobe Illustrator 18.1.1, SVG Export Plug-In . SVG Version: 6.00 Build 0)  -->
<!DOCTYPE svg PUBLIC "-//W3C//DTD SVG 1.1//EN" "http://www.w3.org/Graphics/SVG/1.1/DTD/svg11.dtd">
<svg version="1.1" id="Layer_1" xmlns="http://www.w3.org/2000/svg" xmlns:xlink="http://www.w3.org/1999/xlink" x="0px" y="0px"
	 viewBox="0 0 24 24" enable-background="new 0 0 24 24" xml:space="preserve">
<g>
	<circle fill="#333333" cx="17" cy="11" r="1"/>
	<circle fill="#333333" cx="7" cy="11" r="1"/>
	<path fill="#333333" d="M21.9,22.5l-2.2-3.6c0.8-0.3,1.3-1,1.3-1.9V7c0-3.9-3.1-7-7-7h-4C6.1,0,3,3.1,3,7v10c0,0.9,0.5,1.6,1.3,1.9
		l-2.2,3.6C1.9,23,2,23.6,2.5,23.9C2.6,24,2.8,24,3,24c0.3,0,0.7-0.2,0.9-0.5L4.8,22c0.1,0,0.1,0,0.2,0h14c0.1,0,0.1,0,0.2,0
		l0.9,1.6c0.2,0.3,0.5,0.5,0.9,0.5c0.2,0,0.4,0,0.5-0.1C22,23.6,22.1,23,21.9,22.5z M5,17v-2h4h2v2H5z M5,7c0-0.3,0-0.7,0.1-1H9v7H5
		V7z M19,7l0,6h-4V6h3.9C19,6.3,19,6.7,19,7z M13,13h-2V6h2V13z M13,15h2h4v2h-6V15z M10,2h4c1.6,0,3.1,0.8,4,2h-3H9H6
		C6.9,2.8,8.4,2,10,2z M6,20l0.6-1h10.9l0.6,1H6z"/>
</g>
</svg>
