<?xml version="1.0" encoding="utf-8"?>
<!-- Generator: Adobe Illustrator 18.1.1, SVG Export Plug-In . SVG Version: 6.00 Build 0)  -->
<!DOCTYPE svg PUBLIC "-//W3C//DTD SVG 1.1//EN" "http://www.w3.org/Graphics/SVG/1.1/DTD/svg11.dtd">
<svg version="1.1" id="Layer_1" xmlns="http://www.w3.org/2000/svg" xmlns:xlink="http://www.w3.org/1999/xlink" x="0px" y="0px"
	 viewBox="0 0 24 24" enable-background="new 0 0 24 24" xml:space="preserve">
<path fill="#333333" d="M22,7v2H9c0-2.2-1.8-4-4-4H4C3.3,5,2.6,5.2,2,5.6V2H0v7v2v5v6h2v-2h20v2h2v-2v-2v-2V9V7H22z M22,11v3H7v-3h2
	H22z M4,7h1c1.1,0,2,0.9,2,2H2C2,7.9,2.9,7,4,7z M5,11v3H2v-3H5z M22,18H2v-2h20V18z"/>
</svg>
