<?xml version="1.0" encoding="utf-8"?>
<!-- Generator: Adobe Illustrator 18.1.1, SVG Export Plug-In . SVG Version: 6.00 Build 0)  -->
<!DOCTYPE svg PUBLIC "-//W3C//DTD SVG 1.1//EN" "http://www.w3.org/Graphics/SVG/1.1/DTD/svg11.dtd">
<svg version="1.1" id="Layer_1" xmlns="http://www.w3.org/2000/svg" xmlns:xlink="http://www.w3.org/1999/xlink" x="0px" y="0px"
	 viewBox="0 0 24 24" enable-background="new 0 0 24 24" xml:space="preserve">
<g>
	<circle fill="#333333" cx="6" cy="17" r="1"/>
	<circle fill="#333333" cx="18" cy="17" r="1"/>
	<path fill="#333333" d="M23.5,9L23,4.9C23,2.2,20.7,0,18,0H6C3.3,0,1,2.2,1,4.9L0.5,9.1c-0.3,2.8-0.3,5.6,0.2,8.4
		c0.1,0.9,0.5,1.7,0.9,2.5C1.8,20.4,2,20.8,2,20.9V24h5v-3h10v3h5v-3.3c0.6-0.3,1-0.9,1-1.6l0-0.2C23.7,15.7,23.8,12.3,23.5,9z
		 M5,22H4.3v-1H5V22z M7,19H3l-0.1-0.5c-0.6-3-0.7-6.1-0.4-9.2L3,5.1L3,5c0-1.7,1.3-3,3-3h12c1.7,0,3,1.3,3,3l0.5,4.3
		c0.3,3.1,0.2,6.2-0.4,9.2L21,18.8l0,0.2h-3.7H7z M20,22h-0.7v-1H20V22z"/>
	<path fill="#333333" d="M18,6H6C4.9,6,4,6.9,4,8v6c0,0.6,0.4,1,1,1h14c0.6,0,1-0.4,1-1V8C20,6.9,19.1,6,18,6z M6,8h5v5H6V8z M18,13
		h-5V8h5V13z"/>
	<path fill="#333333" d="M9,5h6c0.6,0,1-0.4,1-1s-0.4-1-1-1H9C8.4,3,8,3.4,8,4S8.4,5,9,5z"/>
</g>
</svg>
