<?xml version="1.0" encoding="utf-8"?>
<!-- Generator: Adobe Illustrator 18.1.1, SVG Export Plug-In . SVG Version: 6.00 Build 0)  -->
<!DOCTYPE svg PUBLIC "-//W3C//DTD SVG 1.1//EN" "http://www.w3.org/Graphics/SVG/1.1/DTD/svg11.dtd">
<svg version="1.1" id="Layer_1" xmlns="http://www.w3.org/2000/svg" xmlns:xlink="http://www.w3.org/1999/xlink" x="0px" y="0px"
	 viewBox="0 0 24 24" enable-background="new 0 0 24 24" xml:space="preserve">
<g>
	<path fill="#333333" d="M9.2,24l0-3.4c-0.4-0.1-0.7-0.2-1.1-0.4l-2.4,2.4l-4.2-4.2l2.4-2.4c-0.2-0.4-0.3-0.8-0.4-1.1L0,14.9l0-5.7
		l3.4,0c0.1-0.4,0.2-0.7,0.4-1.1L1.4,5.6l4.2-4.2l2.4,2.4c0.4-0.2,0.8-0.3,1.1-0.4L9.1,0l5.7,0l0,3.4c0.4,0.1,0.7,0.2,1.1,0.4
		l2.4-2.4l4.2,4.2l-2.4,2.4c0.2,0.4,0.3,0.8,0.4,1.1L24,9.1l0,5.7l-3.4,0c-0.1,0.4-0.2,0.7-0.4,1.1l2.4,2.4l-4.2,4.2l-2.4-2.4
		c-0.4,0.2-0.8,0.3-1.1,0.4l0.1,3.4L9.2,24z M7.8,17.6l0.7,0.5c0.7,0.5,1.2,0.6,2,0.8l0.8,0.2l0,3l1.6,0l-0.1-3l0.8-0.2
		c0.8-0.2,1.3-0.3,2-0.8l0.7-0.5l2.1,2.1l1.4-1.4l-2.1-2.1l0.5-0.7c0.5-0.7,0.6-1.2,0.8-2l0.2-0.8l3,0l0-1.6l-3,0.1l-0.2-0.8
		c-0.2-0.8-0.3-1.3-0.8-2l-0.5-0.7l2.1-2.1l-1.4-1.4l-2.1,2.1l-0.7-0.5c-0.7-0.5-1.2-0.6-2-0.8L12.8,5l0-3l-1.6,0l0.1,3l-0.8,0.2
		c-0.8,0.2-1.3,0.3-2,0.8L7.8,6.4L5.6,4.2L4.2,5.6l2.1,2.1L5.9,8.5c-0.5,0.7-0.6,1.2-0.8,2L5,11.2l-3,0l0,1.6l3-0.1l0.2,0.8
		c0.2,0.8,0.3,1.3,0.8,2l0.5,0.7l-2.1,2.1l1.4,1.4L7.8,17.6z"/>
</g>
<g>
	<path fill="#333333" d="M12,17c-1.3,0-2.6-0.5-3.5-1.5S7,13.3,7,12s0.5-2.6,1.5-3.5S10.7,7,12,7s2.6,0.5,3.5,1.5S17,10.7,17,12
		s-0.5,2.6-1.5,3.5S13.3,17,12,17z M12,9c-0.8,0-1.6,0.3-2.1,0.9C9.3,10.4,9,11.2,9,12s0.3,1.6,0.9,2.1c1.1,1.1,3.1,1.1,4.2,0
		c0.6-0.6,0.9-1.3,0.9-2.1s-0.3-1.6-0.9-2.1C13.6,9.3,12.8,9,12,9z"/>
</g>
</svg>
