<?xml version="1.0" encoding="utf-8"?>
<!-- Generator: Adobe Illustrator 18.1.1, SVG Export Plug-In . SVG Version: 6.00 Build 0)  -->
<!DOCTYPE svg PUBLIC "-//W3C//DTD SVG 1.1//EN" "http://www.w3.org/Graphics/SVG/1.1/DTD/svg11.dtd">
<svg version="1.1" id="Layer_1" xmlns="http://www.w3.org/2000/svg" xmlns:xlink="http://www.w3.org/1999/xlink" x="0px" y="0px"
	 viewBox="0 0 24 24" enable-background="new 0 0 24 24" xml:space="preserve">
<g>
	<path fill="#333333" d="M12.1,22.4c-6,0-10.8-4.9-10.8-10.8S6.1,0.8,12.1,0.8s10.8,4.9,10.8,10.8S18,22.4,12.1,22.4z M12.1,2.8
		c-4.9,0-8.8,4-8.8,8.8s4,8.8,8.8,8.8s8.8-4,8.8-8.8S16.9,2.8,12.1,2.8z"/>
</g>
<g>
	<path fill="#333333" d="M16.1,12.6h-4c-0.6,0-1-0.4-1-1v-6c0-0.6,0.4-1,1-1s1,0.4,1,1v5h3c0.6,0,1,0.4,1,1S16.6,12.6,16.1,12.6z"/>
</g>
</svg>
