<?xml version="1.0" encoding="utf-8"?>
<!-- Generator: Adobe Illustrator 18.1.1, SVG Export Plug-In . SVG Version: 6.00 Build 0)  -->
<!DOCTYPE svg PUBLIC "-//W3C//DTD SVG 1.1//EN" "http://www.w3.org/Graphics/SVG/1.1/DTD/svg11.dtd">
<svg version="1.1" id="Layer_1" xmlns="http://www.w3.org/2000/svg" xmlns:xlink="http://www.w3.org/1999/xlink" x="0px" y="0px"
	 viewBox="0 0 24 24" enable-background="new 0 0 24 24" xml:space="preserve">
<g>
	<path fill="#333333" d="M12,23.9L11.2,23C9.9,21.5,3,13.4,3,9.2c0-5,4-9,9-9c5,0,9,4,9,9c0,4.2-6.9,12.3-8.2,13.9L12,23.9z M12,2.2
		c-3.9,0-7,3.1-7,7c0,2.4,3.5,7.5,7,11.7c3.5-4.2,7-9.3,7-11.7C19,5.3,15.9,2.2,12,2.2z M12,12.4c-1.8,0-3.3-1.5-3.3-3.3
		s1.5-3.3,3.3-3.3c1.8,0,3.3,1.5,3.3,3.3S13.8,12.4,12,12.4z M12,7.9c-0.7,0-1.3,0.6-1.3,1.3s0.6,1.3,1.3,1.3s1.3-0.6,1.3-1.3
		S12.7,7.9,12,7.9z"/>
</g>
</svg>
