<?xml version="1.0" encoding="utf-8"?>
<!-- Generator: Adobe Illustrator 18.1.1, SVG Export Plug-In . SVG Version: 6.00 Build 0)  -->
<!DOCTYPE svg PUBLIC "-//W3C//DTD SVG 1.1//EN" "http://www.w3.org/Graphics/SVG/1.1/DTD/svg11.dtd">
<svg version="1.1" id="Layer_1" xmlns="http://www.w3.org/2000/svg" xmlns:xlink="http://www.w3.org/1999/xlink" x="0px" y="0px"
	 viewBox="0 0 24 24" enable-background="new 0 0 24 24" xml:space="preserve">
<g>
	<path fill="#333333" d="M18.4,2H5.6C2.6,2,0,4.6,0,7.7v0.9C0,10,1.2,11,2.9,11h1.8C6.2,11,7,10.2,7,8.6v-1C7,7.4,7.7,7,8.2,7h7.5
		C16.4,7,17,7.4,17,7.5v1c0,1.6,0.8,2.4,2.3,2.4h1.8c1.7,0,2.9-1,2.9-2.4V7.7C24,4.6,21.4,2,18.4,2z M22,8.6C22,8.9,21.4,9,21.1,9
		h-1.8c-0.1,0-0.2,0-0.3,0c0-0.1,0-0.2,0-0.4v-1C19,5.9,17.1,5,15.8,5H8.2C6.9,5,5,5.9,5,7.5v1C5,8.8,5,8.9,5,9C4.9,9,4.8,9,4.7,9
		H2.9C2.6,9,2,9,2,8.6V7.7C2,5.7,3.7,4,5.6,4h12.7C20.3,4,22,5.7,22,7.7V8.6z"/>
	<path fill="#333333" d="M18.8,14.1c-0.1,0-0.2-0.1-0.3-0.1h0c0,0,0,0,0,0C17,14,16,13.1,16,11.6V9c0-0.6-0.4-1-1-1H9.3
		c-0.6,0-1,0.4-1,1l0,2.6c0,1.4-1,2.4-2.6,2.4c0,0,0,0,0,0c-2,0-3.7,1.8-3.7,3.8V21c0,0.6,0.4,1,1,1h18c0.6,0,1-0.4,1-1v-3.2
		C22,16,20.6,14.4,18.8,14.1z M20,20H4v-2.2c0-1,0.8-1.8,1.8-1.8c2.6,0,4.5-1.9,4.5-4.4l0-1.6H14v1.6c0,2.4,1.6,4.1,3.9,4.3
		c0.1,0,0.1,0,0.2,0c1,0,1.8,0.9,1.8,1.8V20z"/>
	<circle fill="#333333" cx="12" cy="16.1" r="1.7"/>
</g>
</svg>
