<?xml version="1.0" encoding="utf-8"?>
<!-- Generator: Adobe Illustrator 18.1.1, SVG Export Plug-In . SVG Version: 6.00 Build 0)  -->
<!DOCTYPE svg PUBLIC "-//W3C//DTD SVG 1.1//EN" "http://www.w3.org/Graphics/SVG/1.1/DTD/svg11.dtd">
<svg version="1.1" id="Layer_1" xmlns="http://www.w3.org/2000/svg" xmlns:xlink="http://www.w3.org/1999/xlink" x="0px" y="0px"
	 viewBox="0 0 24 24" enable-background="new 0 0 24 24" xml:space="preserve">
<g>
	<path fill="#333333" d="M9.9,9.5L9.9,9.5C9.3,8.9,9,8.1,9,7.3V0H3v7.3c0,0.8-0.3,1.6-0.9,2.1L2.1,9.5c-1.2,1.2-1.9,2.8-2,4.5h0v0.5
		V21v3h12v-3v-6.5V14h0C11.9,12.3,11.2,10.7,9.9,9.5z M10,16v3H2v-3H10z M3.5,10.9C4.5,9.9,5,8.7,5,7.3V2h2v5.3
		c0,1.3,0.5,2.6,1.5,3.6c0.8,0.8,1.3,1.9,1.4,3.1H2C2.2,12.8,2.6,11.8,3.5,10.9z M10,22H2v-1h8V22z"/>
	<path fill="#333333" d="M23,12.7V10H13v2.7c0,2.4,1.7,4.4,4,4.9V22h-2c-0.6,0-1,0.4-1,1s0.4,1,1,1h6c0.6,0,1-0.4,1-1s-0.4-1-1-1h-2
		v-4.4C21.3,17.1,23,15.1,23,12.7z M15,12.7V12h6v0.7c0,1.7-1.3,3-3,3S15,14.4,15,12.7z"/>
	<rect x="19" y="6" fill="#333333" width="2" height="2"/>
	<rect x="15" y="3" fill="#333333" width="2" height="2"/>
</g>
</svg>
