<?xml version="1.0" encoding="utf-8"?>
<!-- Generator: Adobe Illustrator 18.1.1, SVG Export Plug-In . SVG Version: 6.00 Build 0)  -->
<!DOCTYPE svg PUBLIC "-//W3C//DTD SVG 1.1//EN" "http://www.w3.org/Graphics/SVG/1.1/DTD/svg11.dtd">
<svg version="1.1" id="Layer_1" xmlns="http://www.w3.org/2000/svg" xmlns:xlink="http://www.w3.org/1999/xlink" x="0px" y="0px"
	 viewBox="0 0 24 24" enable-background="new 0 0 24 24" xml:space="preserve">
<g>
	<path fill="#333333" d="M20,12.7c-0.7,0-1-0.2-1.4-0.5c-0.4-0.3-0.9-0.6-1.6-0.8V0h-2v3H9V0H7v11.4c-0.7,0.2-1.2,0.5-1.6,0.8
		C5,12.5,4.7,12.7,4,12.7c-0.7,0-1-0.2-1.4-0.5C2,11.8,1.3,11.3,0,11.3v2c0.7,0,1,0.2,1.4,0.5C2,14.2,2.7,14.7,4,14.7
		c1.3,0,2-0.5,2.6-0.9C7,13.5,7.3,13.3,8,13.3s1,0.2,1.4,0.5c0.6,0.4,1.3,0.9,2.6,0.9s2-0.5,2.6-0.9c0.4-0.3,0.7-0.5,1.4-0.5
		c0.7,0,1,0.2,1.4,0.5c0.6,0.4,1.3,0.9,2.6,0.9s2-0.5,2.6-0.9c0.4-0.3,0.7-0.5,1.4-0.5v-2c-1.3,0-2,0.5-2.6,0.9
		C21,12.5,20.7,12.7,20,12.7z M9,5h6v3H9V5z M13.4,12.2c-0.4,0.3-0.7,0.5-1.4,0.5s-1-0.2-1.4-0.5c-0.4-0.3-0.9-0.6-1.6-0.8V10h6v1.4
		C14.3,11.6,13.8,11.9,13.4,12.2z"/>
	<path fill="#333333" d="M20,16.7c-0.7,0-1-0.2-1.4-0.5c-0.6-0.4-1.3-0.9-2.6-0.9c-1.3,0-2,0.5-2.6,0.9c-0.4,0.3-0.7,0.5-1.4,0.5
		s-1-0.2-1.4-0.5C10,15.8,9.3,15.3,8,15.3s-2,0.5-2.6,0.9C5,16.5,4.7,16.7,4,16.7c-0.7,0-1-0.2-1.4-0.5C2,15.8,1.3,15.3,0,15.3v2
		c0.7,0,1,0.2,1.4,0.5C2,18.2,2.7,18.7,4,18.7c1.3,0,2-0.5,2.6-0.9C7,17.5,7.3,17.3,8,17.3s1,0.2,1.4,0.5c0.6,0.4,1.3,0.9,2.6,0.9
		s2-0.5,2.6-0.9c0.4-0.3,0.7-0.5,1.4-0.5c0.7,0,1,0.2,1.4,0.5c0.6,0.4,1.3,0.9,2.6,0.9s2-0.5,2.6-0.9c0.4-0.3,0.7-0.5,1.4-0.5v-2
		c-1.3,0-2,0.5-2.6,0.9C21,16.5,20.7,16.7,20,16.7z"/>
	<path fill="#333333" d="M20,20.7c-0.7,0-1-0.2-1.4-0.5c-0.6-0.4-1.3-0.9-2.6-0.9c-1.3,0-2,0.5-2.6,0.9c-0.4,0.3-0.7,0.5-1.4,0.5
		s-1-0.2-1.4-0.5C10,19.8,9.3,19.3,8,19.3s-2,0.5-2.6,0.9C5,20.5,4.7,20.7,4,20.7c-0.7,0-1-0.2-1.4-0.5C2,19.8,1.3,19.3,0,19.3v2
		c0.7,0,1,0.2,1.4,0.5C2,22.2,2.7,22.7,4,22.7c1.3,0,2-0.5,2.6-0.9C7,21.5,7.3,21.3,8,21.3s1,0.2,1.4,0.5c0.6,0.4,1.3,0.9,2.6,0.9
		s2-0.5,2.6-0.9c0.4-0.3,0.7-0.5,1.4-0.5c0.7,0,1,0.2,1.4,0.5c0.6,0.4,1.3,0.9,2.6,0.9s2-0.5,2.6-0.9c0.4-0.3,0.7-0.5,1.4-0.5v-2
		c-1.3,0-2,0.5-2.6,0.9C21,20.5,20.7,20.7,20,20.7z"/>
	<rect y="3" fill="#333333" width="5" height="2"/>
	<rect x="19" y="3" fill="#333333" width="5" height="2"/>
</g>
</svg>
