<?xml version="1.0" encoding="utf-8"?>
<!-- Generator: Adobe Illustrator 18.1.1, SVG Export Plug-In . SVG Version: 6.00 Build 0)  -->
<!DOCTYPE svg PUBLIC "-//W3C//DTD SVG 1.1//EN" "http://www.w3.org/Graphics/SVG/1.1/DTD/svg11.dtd">
<svg version="1.1" id="Layer_1" xmlns="http://www.w3.org/2000/svg" xmlns:xlink="http://www.w3.org/1999/xlink" x="0px" y="0px"
	 viewBox="0 0 24 24" enable-background="new 0 0 24 24" xml:space="preserve">
<g>
	<path fill="#333333" d="M18.2,23.3c-0.5,0-0.9-0.1-1.3-0.4l-4.9-3.6l-0.7-0.8l0.6,0.8L7,22.8c-0.9,0.7-2.3,0.4-3-0.5
		c-0.4-0.6-0.5-1.3-0.3-1.9l1.8-5.3c0-0.1,0-0.1,0-0.1l-4.7-3.2C0.1,11.2-0.3,10.3,0,9.4s1.1-1.5,2-1.5H8c0.1,0,0.1,0,0.1-0.1L10,2
		c0.3-0.9,1.1-1.5,2-1.5s1.7,0.6,2,1.5l1.9,5.8c0,0.1,0.1,0.1,0.1,0.1h5.9c0.9,0,1.8,0.6,2,1.5c0.3,0.9-0.1,1.9-0.8,2.4l-4.6,3.1
		c0,0-0.1,0.1-0.1,0.1l1.8,5.5c0.2,0.7,0.1,1.4-0.3,1.9C19.6,23,18.9,23.3,18.2,23.3z M12,17.3c0.5,0,0.9,0.1,1.3,0.4l5,3.6
		c0,0,0.1,0,0.1-0.1c0,0,0-0.1,0-0.1l-1.8-5.5c-0.3-0.9,0-1.9,0.8-2.4l4.6-3.1c0,0,0.1-0.1,0.1-0.1c0-0.1-0.1-0.1-0.1-0.1H16
		c-0.9,0-1.7-0.6-2-1.5l-1.9-5.8c0,0,0-0.1-0.1-0.1s-0.1,0.1-0.1,0.1L10,8.4C9.7,9.3,8.9,9.9,8,9.9H2.1c0,0-0.1,0-0.1,0.1
		c0,0.1,0,0.1,0.1,0.1l4.7,3.2c0.8,0.5,1.1,1.5,0.8,2.4L5.7,21c0,0.1,0,0.1,0,0.1c0,0,0.1,0.1,0.1,0.1l5-3.5
		C11.1,17.4,11.5,17.3,12,17.3z"/>
</g>
</svg>
